<svg xmlns="http://www.w3.org/2000/svg" width="11.48" height="10.979" viewBox="0 0 11.48 10.979">
    <defs>
        <style>
            .cls-1{fill:#fff}
        </style>
    </defs>
    <path id="star_1_" d="M6.295 1.391L7.59 4.015a.618.618 0 0 0 .466.338l2.9.421a.618.618 0 0 1 .343 1.054L9.2 7.87a.618.618 0 0 0-.178.547l.493 2.883a.618.618 0 0 1-.9.652l-2.59-1.361a.619.619 0 0 0-.575 0l-2.59 1.361a.618.618 0 0 1-.9-.652l.494-2.884a.618.618 0 0 0-.178-.547L.188 5.828a.618.618 0 0 1 .343-1.054l2.9-.421a.618.618 0 0 0 .466-.338l1.289-2.624a.618.618 0 0 1 1.109 0z" class="cls-1" data-name="star (1)" transform="translate(-.001 -1.047)"/>
</svg>
