<svg xmlns="http://www.w3.org/2000/svg" width="70.6" height="55.255" viewBox="0 0 70.6 55.255"><defs><style>.a{fill:#2e4676;}.b{fill:#fff;}.c{opacity:0.8;}.d{fill:none;stroke:#000;stroke-miterlimit:10;}</style></defs><g transform="translate(0 0.004)"><g transform="translate(0 -0.004)"><path d="M0,32.345C1.641,17.445,12.667.2,35.5,0A33.274,33.274,0,0,1,60.546,10.469,35.276,35.276,0,0,1,70.6,31.383C65.646,11.917,52.332,3.536,35.516,3.126,21.887,2.8,6.61,9.072,0,32.345Z" transform="translate(0 0.004)"/><path class="a" d="M58.283,79.685a7.042,7.042,0,0,1,.791,1.887c.363,3.267.152,6.66.991,9.8,1.4,5.216,8.519,8.66,13.157,6.827A5.757,5.757,0,0,0,74,97.691l-4.769-.8a9.909,9.909,0,0,0,6.864-1.22c-2.359.272-4.356.494-6.33.751-.178.025-.323.312-.483.479l-2.432-.178v-.6a27.913,27.913,0,0,1,3-.2C79.19,96.287,82.739,88.2,80.442,80.8c-.5-1.615-1.568-1.172-2.6-.671a16.365,16.365,0,0,1-10.2,1.63c-.661-.113-1.3-.341-1.949-.515l.073-.548a15.861,15.861,0,0,0,1.971.131,61.693,61.693,0,0,0,7.876-.544c2.573-.468,2.9-2,1.3-4.087a18.032,18.032,0,0,0-1.862-1.975c-.635-.617-1.325-1.176-1.993-1.76l.211-.508a12.906,12.906,0,0,1,2.218.886c4.588,2.889,7.129,9.252,6.112,15.1-.127.726-.2,1.5-.323,2.45,1.7-1.281,1.735-4.8.236-11.1l11.288-4.628.225.512L89.1,76.719l2.029,1.452-7.415,1.263c.388.784.679,1.379,1.089,2.254l-1.88-.573c.468,2.479.882,4.682,1.376,7.321l2.327.468c-1.5,2.976-4.033,5.553-6.726,8.036a13.4,13.4,0,0,1-7.571,3.466,11.58,11.58,0,0,1-8.294-1.8A27.518,27.518,0,0,1,54.49,88.385c.494.363.726.526.955.686,1.223.831,1.978.439,2.178-1.024.149-1.147.461-2.272.65-3.412s.363-2.178-.882-3.009c-.388-.258-.287-1.259-.421-1.967l1.376.073Zm23.2,12.653-.726-.624-2.087,2.6.563.483Q80.358,93.564,81.487,92.338Z" transform="translate(-34.712 -45.833)"/><path d="M95.852,107.093c.766-.363,1.357-.693,1.989-.918,2.965-1.06,4.239-3,4.072-6.069-.076-1.379-.635-1.884-2.051-1.815-2.682.105-5.372.029-8.083-.131,3.993,0,7.931-.058,11.045-3.031,1.517,2.541.795,8.225-1.013,10.029C99.635,107.3,97.479,108.11,95.852,107.093Z" transform="translate(-58.467 -60.6)"/><path d="M116.14,127.273c2.141-1.641,4.639-2.987,6.341-5,2.145-2.541,5.18-3.905,7.321-6.348a34.214,34.214,0,0,1,2.272-2.613l-1.209,2.824,3.426.483c-.185.123-.269.225-.33.211-3.132-.646-5.19.893-7.343,3a84.966,84.966,0,0,1-8.348,6.566,13.029,13.029,0,0,1-2.029,1.042Z" transform="translate(-73.985 -72.181)"/><path d="M23.554,98.847l.889,3.88a31.149,31.149,0,0,0-5.571-.221,41.63,41.63,0,0,0-5.862,1.546c2.443-3.63,6.443-2.566,10.236-2.541.25-1.343-.16-2.062-1.568-2.094a16.874,16.874,0,0,1-3.557-.4C19.939,98.386,21.855,99.583,23.554,98.847Z" transform="translate(-8.288 -62.955)"/><path d="M46.918,84.223C44.6,82.9,42.1,82.611,38.933,82.964l2.98-1.786L36.57,79c4.058,1.22,8.272,2.083,11.9,5.194H46.864Z" transform="translate(-23.296 -50.324)"/><path d="M47.471,96.484l.726-1.7-.261-.309-1.274.777c-1.056-1.532.439-2.777.936-4.414l3.056,1.677c-.621.951-1.223,1.913-1.869,2.842a15.415,15.415,0,0,1-1.06,1.23Z" transform="translate(-29.49 -57.867)"/><path d="M145.3,94.92c.116,1.328.232,2.653.363,3.993l-.468.029c-.134-.537-.265-1.089-.4-1.608l-.6.109.341,2.025.385-.363a26.05,26.05,0,0,1-2.857-2.239c-.3-.3-.123-1.067-.163-1.622Z" transform="translate(-90.388 -60.466)"/><path d="M154.487,106a13.084,13.084,0,0,0,2.9.363c3.02-.236,5.688.385,7.8,2.755a44.768,44.768,0,0,0-5.444-1.615,48.953,48.953,0,0,0-5.876-.319l.661-1.158Z" transform="translate(-98.021 -67.524)"/><path d="M78.242,101.53c-3.51.363-4.457,1.891-3.1,5.194a24.891,24.891,0,0,1,1.31,3.082,5.807,5.807,0,0,1-1.049-.9,8.649,8.649,0,0,1-1.223-7.067,1.394,1.394,0,0,1,1.089-.795A22.265,22.265,0,0,1,78.242,101.53Z" transform="translate(-47.096 -64.365)"/><path d="M47.874,123.75l9.386,8.57c-3.811-2.091-6.795-5.136-9.8-8.149Z" transform="translate(-30.234 -78.832)"/><path d="M145.159,92.55l-3.383.363c-.261-.831-.087-1.227.817-1.514a4.125,4.125,0,0,1,4.377,1.307h0l-.726,2.08Z" transform="translate(-90.246 -58.096)"/><path d="M35.891,116.014H29.92v-.3l4.221-.5L32.969,112.6l.283-.113Z" transform="translate(-19.06 -71.659)"/><path d="M155.828,95.3c-.156,1.837.679,2.312,2.4,1.909a20.386,20.386,0,0,1,3.136-.258l.022.657h-4.653c-.508.69-.831,1.132-1.158,1.572l.04.036q.112-1.96.221-3.916Z" transform="translate(-99.104 -60.708)"/><path d="M74.655,71.69l-1.572,1.5-1.3-1.633.105-.12,1.267,1.089.385-.225L71.61,68.87Z" transform="translate(-45.618 -43.871)"/><path d="M41.236,69.81l5.4,3.43-.221.363L41,70.213Z" transform="translate(-26.118 -44.47)"/><path d="M94.23,133.024,100.092,132C98.734,133.183,97.243,133.452,94.23,133.024Z" transform="translate(-60.028 -84.087)"/><path d="M52.288,66.74l.446.6-.152.185-.642-.461Z" transform="translate(-33.088 -42.514)"/><path d="M144.171,68.741l.9-.541.091.338c-.363.054-.7.105-1.042.163Z" transform="translate(-91.81 -43.444)"/><path d="M142.483,72.47l-.323.025h.341Z" transform="translate(-90.561 -46.165)"/><path d="M143.6,70.07c.076-.16.152-.319.221-.483a.337.337,0,0,0-.054-.047c-.069.163-.138.33-.2.5Z" transform="translate(-91.453 -44.298)"/><path d="M143.235,71q-.1.272-.185.544h0c.065-.174.134-.363.2-.53Z" transform="translate(-91.128 -45.228)"/><path class="b" d="M95.123,138.53c.16-.167.3-.454.483-.479,1.985-.258,3.971-.479,6.33-.751a9.909,9.909,0,0,1-6.845,1.205Z" transform="translate(-60.576 -87.464)"/><path class="b" d="M123.933,127.024q-1.129,1.23-2.25,2.457L121.12,129l2.087-2.6Z" transform="translate(-77.158 -80.52)"/><g class="c" transform="translate(16.954 8.237)"><path class="d" d="M49.991,23.753,52.02,22.69l-.388,2.258,1.641,1.6-2.265.33-1.016,2.054-1.013-2.054-2.269-.33,1.641-1.6-.388-2.258Z" transform="translate(-46.71 -22.69)"/><path class="d" d="M79.814,46.852l1.6-.842-.3,1.779L82.4,49.048l-1.786.261-.8,1.619-.8-1.619-1.786-.261,1.292-1.259-.3-1.779Z" transform="translate(-66.152 -37.546)"/><path class="d" d="M103.581,38.092l1.045-.552-.2,1.165.846.824L104.1,39.7l-.523,1.06-.523-1.06-1.169-.171.846-.824-.2-1.165Z" transform="translate(-81.862 -32.15)"/></g></g></g></svg>