<svg xmlns="http://www.w3.org/2000/svg" width="20.614" height="20.674" viewBox="0 0 20.614 20.674"><defs><style>.a{fill:#fff;}</style></defs><path class="a" d="M10.307,0A10.337,10.337,0,1,0,20.614,10.337,10.322,10.322,0,0,0,10.307,0Zm0,19.059A8.722,8.722,0,1,1,19,10.337,8.709,8.709,0,0,1,10.307,19.059Z"/><path class="a" d="M200.17,131.576h-1.8v-1.309c0-.4.418-.494.612-.494h1.165v-1.766L198.809,128a2.039,2.039,0,0,0-2.237,2.161v1.415H195.25V133.4h1.322v4.912h1.8V133.4h1.525Z" transform="translate(-187.403 -122.817)"/></svg>