<svg xmlns="http://www.w3.org/2000/svg" width="20.4" height="29.913" viewBox="0 0 20.4 29.913"><defs><style>.a{fill:#fff;}</style></defs><g transform="translate(5.27)"><path class="a" d="M70.715,0H60.756a3.463,3.463,0,0,0-3.443,3.478V8.089a.708.708,0,1,0,1.417,0v-4.6a2.042,2.042,0,0,1,2.026-2.061h9.966a2.046,2.046,0,0,1,2.026,2.061v22.95A2.042,2.042,0,0,1,70.722,28.5H60.756a2.047,2.047,0,0,1-2.026-2.061V21.859a.708.708,0,0,0-1.417,0v4.576a3.463,3.463,0,0,0,3.443,3.478h9.966a3.463,3.463,0,0,0,3.442-3.478V3.485A3.47,3.47,0,0,0,70.715,0Zm0,0" transform="translate(-59.034)"/><path class="a" d="M3.542,203.585a.711.711,0,0,0,1.084.921l2.621-3.1.021-.021c.007-.007.014-.021.021-.028a.036.036,0,0,0,.014-.029c.007-.007.014-.021.021-.028s.007-.021.014-.029.007-.021.014-.028.007-.021.014-.028.007-.021.014-.035.007-.021.007-.029.007-.021.007-.035.007-.021.007-.028.007-.029.007-.043v-.021a.415.415,0,0,0,0-.134v-.021c0-.014-.007-.028-.007-.042s-.007-.021-.007-.029-.007-.021-.007-.035-.007-.021-.007-.028-.007-.021-.014-.035-.007-.021-.014-.029-.007-.021-.014-.028-.007-.021-.014-.028-.014-.021-.021-.029-.007-.014-.014-.028-.014-.021-.021-.028l-.021-.021-2.621-3.1a.709.709,0,1,0-1.084.914l1.636,1.934H-4.561a.708.708,0,0,0-.708.708.709.709,0,0,0,.708.708H5.178Zm0,0" transform="translate(0 -185.983)"/></g></svg>