<svg xmlns="http://www.w3.org/2000/svg" width="20.674" height="20.674" viewBox="0 0 20.674 20.674"><defs><style>.a{fill:#fff;}</style></defs><path class="a" d="M10.337,0A10.337,10.337,0,1,0,20.674,10.337,10.349,10.349,0,0,0,10.337,0Zm0,19.491a9.154,9.154,0,1,1,9.154-9.154A9.165,9.165,0,0,1,10.337,19.491Z"/><path class="a" d="M90.975,80.326H82.448a1.416,1.416,0,0,0-1.414,1.414v8.633a1.416,1.416,0,0,0,1.414,1.414h8.527a1.416,1.416,0,0,0,1.414-1.414V81.74A1.416,1.416,0,0,0,90.975,80.326Zm.074,10.047a.074.074,0,0,1-.074.074H82.448a.074.074,0,0,1-.074-.074V81.74a.074.074,0,0,1,.074-.074h8.527a.074.074,0,0,1,.074.074Z" transform="translate(-76.375 -75.719)"/><rect class="a" width="1.534" height="1.407" transform="translate(11.95 7.284)"/><circle class="a" cx="1.513" cy="1.513" r="1.513" transform="translate(8.824 9.315)"/><path class="a" d="M116.357,151.486a2.413,2.413,0,1,1-4.825,0l0-1.075h-1.079v4h6.976v-4h-1.07Z" transform="translate(-103.607 -140.799)"/></svg>