<svg xmlns="http://www.w3.org/2000/svg" width="20.733" height="20.733" viewBox="0 0 20.733 20.733"><defs><style>.a{fill:#fff;}</style></defs><path class="a" d="M151.286,167.482c0-.1,0-.208-.007-.311a4.709,4.709,0,0,0,1.143-1.229,4.388,4.388,0,0,1-1.316.36,2.351,2.351,0,0,0,1.007-1.316,4.4,4.4,0,0,1-1.454.561,2.279,2.279,0,0,0-1.672-.789,2.314,2.314,0,0,0-2.29,2.387,2.545,2.545,0,0,0,.059.553,6.45,6.45,0,0,1-4.722-2.609,2.569,2.569,0,0,0,.709,3.272,2.192,2.192,0,0,1-1.038-.318v.031a2.433,2.433,0,0,0,1.838,2.411,2.17,2.17,0,0,1-.6.082,2.093,2.093,0,0,1-.431-.047,2.328,2.328,0,0,0,2.139,1.7,4.421,4.421,0,0,1-2.844,1.036,4.366,4.366,0,0,1-.547-.035,6.179,6.179,0,0,0,3.511,1.1A6.651,6.651,0,0,0,151.286,167.482Z" transform="translate(-136.473 -159.177)"/><path class="a" d="M20.733,10.367A10.367,10.367,0,1,0,10.367,20.733,10.367,10.367,0,0,0,20.733,10.367Zm-19.791,0a9.424,9.424,0,1,1,9.424,9.424A9.424,9.424,0,0,1,.942,10.367Z"/></svg>